PathFileType	4	(X/Y/Z)	Patient4_TMGait_0pt4_02_left_12.trc.trc
DataRate	CameraRate	NumFrames	NumMarkers	Units	OrigDataRate	OrigDataStartFrame	OrigNumFrames
74.866310160428	74.866310160428	4	33	mm	74.866310160428	71	       141
Frame#	Time	Sacral			L.Shoulder			Chest			R.Shoulder			Neck			R.ASIS			L.ASIS			R.Thigh.Superior			R.Thigh.Lateral			R.Thigh.Inferior			R.Patella			L.Thigh.Superior			L.Thigh.Lateral			L.Thigh.Inferior			L.Patella			L.Shank.Superior			L.Shank.Lateral			L.Shank.Inferior			R.Shank.Superior			R.Shank.Lateral			R.Shank.Inferior			R.Heel			R.Midfoot.Superior			R.Midfoot.Lateral			R.Toe			L.Heel			L.Midfoot.Lateral			L.Midfoot.Superior			L.Toe			L.Elbow			L.Wrist			R.Elbow			R.Wrist			
		X1	Y1	Z1	X2	Y2	Z2	X3	Y3	Z3	X4	Y4	Z4	X5	Y5	Z5	X6	Y6	Z6	X7	Y7	Z7	X8	Y8	Z8	X9	Y9	Z9	X10	Y10	Z10	X11	Y11	Z11	X12	Y12	Z12	X13	Y13	Z13	X14	Y14	Z14	X15	Y15	Z15	X16	Y16	Z16	X17	Y17	Z17	X18	Y18	Z18	X19	Y19	Z19	X20	Y20	Z20	X21	Y21	Z21	X22	Y22	Z22	X23	Y23	Z23	X24	Y24	Z24	X25	Y25	Z25	X26	Y26	Z26	X27	Y27	Z27	X28	Y28	Z28	X29	Y29	Z29	X30	Y30	Z30	X31	Y31	Z31	X32	Y32	Z32	X33	Y33	Z33	

71	16.935000000000	845.264694849061	1009.978584222539	415.756675940183	1061.532121396501	1420.370706297033	218.347365247990	1143.861070880152	1362.730977785154	394.015994807503	1045.192837572535	1453.345859643513	551.594669985446	1037.846322493354	1493.762257631385	367.374138690962	1066.590443934885	948.672004899560	549.417321395061	1070.262530232599	960.712173062625	273.588164171020	1131.455195617335	764.732350438060	530.081864887429	1079.245489489520	649.013860811151	609.712756517977	1165.360155918441	602.518500361591	530.969958974987	1194.026394231805	524.910526132108	549.204526994360	1081.019335764398	738.574298403725	304.743671243065	972.300885225028	637.341472600528	238.714285719225	1038.316339972342	548.276224501757	303.425998238163	1025.968034036741	482.906584014185	312.237458264162	996.937985138376	414.294901128488	303.819191350658	899.419805321601	304.824650351525	254.408779682478	947.703776497468	191.835256961402	326.614882143899	1182.627029489969	440.352261754409	564.059551034213	1136.309137597300	328.183079457147	634.768703563141	1208.699819632421	242.993343588533	584.583691065368	1125.683139481236	52.890105280181	567.207589348076	1289.268106942453	129.589066563265	597.543783812321	1214.270142167553	52.622304940857	635.500145109048	1415.545308185100	95.138531446654	614.788067293992	815.774864141757	38.853960535480	375.888824695142	885.244325964340	34.840017617411	291.372950693578	970.152500549731	96.294086720837	314.412859372745	1097.203014502879	43.322449324023	279.961335180935	1091.727850556010	1077.311349700551	85.899094550020	1262.278370793784	876.230582269801	83.308225701278	900.635346593627	1150.898170583010	688.829205705040	901.790235355568	891.454419092414	726.831095158090	
72	16.948357142857	846.805634824037	1008.611929284616	417.574410175545	1061.303974934622	1419.804179870380	220.962025658331	1143.744262375840	1362.462935226934	396.689969274268	1044.469442941248	1452.526690210130	554.216631965649	1037.048989674509	1493.007006707458	370.012874799306	1067.982335956991	947.509724889818	551.669275817837	1072.267380963821	960.177762574778	275.700119007437	1132.852267523147	763.220449067601	532.438673213668	1078.551123184108	646.544322228488	609.840029637930	1165.748975467723	600.944541323970	532.158447130724	1193.195301823756	522.714254616203	549.457152053886	1080.641919024806	737.219708896289	307.106172155168	970.964990628108	637.155155509345	239.966519298113	1035.196592387468	547.396694628329	305.233034890744	1022.081675820562	482.202080514753	313.766420657533	992.881151352781	413.858045533675	304.987721842511	895.095666774803	304.880997900780	254.939390121063	942.688624212938	191.572839003919	327.140775200285	1180.817217319032	437.233367106839	563.527511023518	1132.181235443964	325.332947636941	632.688604833510	1203.700216223298	239.609979704651	582.543205112946	1118.412412535781	50.914410600269	563.545094860613	1282.297125772294	125.802497431506	594.936949194566	1206.380676918260	50.048178077746	632.513986780754	1408.066670490281	90.342062893014	613.096348511394	810.338820216159	38.716717312399	375.924277821052	879.785424695162	34.785997870696	291.375563515825	964.647486270486	96.251160436751	314.569387574036	1091.712968841482	43.439958080960	280.012158120723	1092.784941413630	1076.561582882088	89.162488992289	1264.143067066739	876.128688894326	86.903978311120	901.356501659145	1149.231200488699	690.964437935435	903.984292707947	889.643251764959	728.095488953537	
73	16.961714285714	848.633552755665	1007.046693088231	419.615414450896	1061.033017733125	1419.196550241355	223.808246300348	1143.643079046173	1362.185914215550	399.582127912980	1043.675418144375	1451.570781565005	557.077952392478	1036.172889734454	1492.170038658656	372.899792692810	1069.728847189132	946.261186692704	554.045764965960	1074.473006587684	959.596455300072	277.958434393648	1134.870852659179	761.743599826697	534.747711885678	1078.480606022979	644.037049362891	609.623432643652	1166.841423249557	599.446589341166	533.098897112054	1192.864777513142	520.192238411726	549.363585286238	1080.587270206751	735.785036584346	309.302793690468	969.973952747750	636.857801746807	241.306872023419	1032.646615619233	546.446278119084	306.958032441050	1018.827712705433	481.306898172682	315.255928811303	989.320513886294	413.248174292395	306.162413915284	891.034895361430	304.929443441582	255.568148677054	937.806651945687	191.199912194867	327.664234031912	1179.019044902423	433.646758104636	562.633094467227	1127.347154975681	322.340400108462	630.258071186399	1197.327458191612	235.624006037557	580.115485917427	1108.418699482495	49.113763499331	559.655102081980	1273.023902381919	121.156680171255	591.981227837651	1195.719439171098	47.305797213931	629.377742657189	1398.081968682033	83.917017880451	611.252756146553	804.902047649342	38.526363029273	375.965160206321	874.335183069430	34.704495750463	291.391151907319	959.156746854164	96.185264286004	314.742167624832	1086.247562955126	43.491161362540	280.058835281830	1093.486895380320	1075.764317598056	92.536687816727	1265.598632699855	875.936055315382	90.601624393359	902.474426833814	1147.163207912372	693.356910042582	907.338469297517	887.461505050628	729.628099783255	
74	16.975071428571	850.725959579576	1005.315307077253	421.874605518416	1060.733152670027	1418.563117956400	226.879175919254	1143.577095731905	1361.908213075544	402.681973220629	1042.851433315089	1450.498254515182	560.174887758619	1035.257579536662	1491.277388356815	376.031593804524	1071.819446065997	944.958407633789	556.517838393568	1076.848732393613	959.002419565386	280.350276718527	1137.393928120264	760.231871042454	536.953622990062	1078.930595368240	641.552168192629	609.157258984582	1168.418484543621	597.965565615105	533.779132645249	1192.856270187824	517.404485432757	548.911635751585	1080.911676878458	734.293097051992	311.284777004356	969.404733349608	636.434787768882	242.761684855263	1030.798587295929	545.418323251640	308.607583601091	1016.359286291232	480.188112217814	316.721362836172	986.367872107867	412.439477018110	307.363019258784	887.313658825867	304.978789840857	256.325552262414	933.096408461515	190.705921481821	328.196685694139	1177.254903889174	429.769861015767	561.449333066479	1122.203155279374	319.293112103187	627.691998772189	1190.134852062077	231.278869523455	577.447191558975	1096.705172646936	47.464156205152	555.851717249480	1262.306394750411	116.101393507873	588.826661384072	1183.371822012042	44.603405175209	626.314378002980	1386.576086523772	76.633187366242	609.280294516348	799.464973887952	38.295195072814	376.009976280338	868.901037690669	34.594936992815	291.425014370350	953.697329213373	96.096445894018	314.929882838609	1080.821685394036	43.458286281933	280.097690068028	1093.851522959911	1074.926499594770	96.024477179077	1266.626520240545	875.630356092185	94.367935860252	903.965483129823	1144.747351659508	695.977851824546	911.773874240621	884.980427847650	731.434467789726	
